<svg width="635" height="315" viewBox="0 0 635 315" fill="none" xmlns="http://www.w3.org/2000/svg">
<mask id="path-1-outside-1_165_13545" maskUnits="userSpaceOnUse" x="0" y="0" width="635" height="315" fill="black">
<rect fill="white" width="635" height="315"/>
<path d="M531 2C536.523 2 541 6.47715 541 12V49H623C628.523 49 633 53.4772 633 59V303C633 308.523 628.523 313 623 313H12C6.47715 313 2 308.523 2 303V59C2 53.4772 6.47715 49 12 49H94V12C94 6.47715 98.4772 2 104 2H531Z"/>
</mask>
<path d="M531 2C536.523 2 541 6.47715 541 12V49H623C628.523 49 633 53.4772 633 59V303C633 308.523 628.523 313 623 313H12C6.47715 313 2 308.523 2 303V59C2 53.4772 6.47715 49 12 49H94V12C94 6.47715 98.4772 2 104 2H531Z" fill="#0F190E" fill-opacity="0.9"/>
<path d="M541 49H539V51H541V49ZM623 49L623 47H623V49ZM633 59L635 59V59L633 59ZM633 303L635 303V303H633ZM12 313L12 315H12V313ZM2 303L0 303L0 303L2 303ZM2 59L0 59V59H2ZM94 49V51H96V49H94ZM94 12L92 12V12H94ZM104 2L104 0L104 2ZM531 2V4C535.418 4 539 7.58172 539 12H541H543C543 5.37258 537.627 0 531 0V2ZM541 12H539V49H541H543V12H541ZM541 49V51H623V49V47H541V49ZM623 49L623 51C627.418 51 631 54.5817 631 59L633 59L635 59C635 52.3726 629.627 47 623 47L623 49ZM633 59H631V303H633H635V59H633ZM633 303L631 303C631 307.418 627.418 311 623 311V313V315C629.627 315 635 309.627 635 303L633 303ZM623 313V311H12V313V315H623V313ZM12 313L12 311C7.58172 311 4 307.418 4 303L2 303L0 303C1.93283e-07 309.627 5.37258 315 12 315L12 313ZM2 303H4V59H2H0V303H2ZM2 59L4 59C4 54.5817 7.58173 51 12 51V49V47C5.37258 47 4.02029e-06 52.3726 0 59L2 59ZM12 49V51H94V49V47H12V49ZM94 49H96V12H94H92V49H94ZM94 12L96 12C96 7.58172 99.5817 4 104 4L104 2L104 0C97.3726 3.01996e-08 92 5.37258 92 12L94 12ZM104 2V4H531V2V0H104V2Z" fill="url(#paint0_linear_165_13545)" mask="url(#path-1-outside-1_165_13545)"/>
<defs>
<linearGradient id="paint0_linear_165_13545" x1="317.5" y1="-3.64384e-08" x2="317.5" y2="312" gradientUnits="userSpaceOnUse">
<stop offset="0.31" stop-color="#E2A165"/>
<stop offset="0.555" stop-color="#D2AF8B"/>
<stop offset="1" stop-color="#996B3F"/>
</linearGradient>
</defs>
</svg>
